<?xml version="1.0" standalone="no"?>
   <!DOCTYPE svg PUBLIC "-//W3C//DTD SVG 1.1//EN" 
   "http://www.w3.org/Graphics/SVG/1.1/DTD/svg11.dtd"><svg id="svg" version="1.1" width="2340" height="801" xmlns="http://www.w3.org/2000/svg"><path d="M892.500 136.865 C 840.366 144.943,788.739 162.691,735.000 191.010 C 681.270 219.324,647.255 243.532,556.561 318.000 C 535.461 335.325,505.020 358.950,488.913 370.500 C 417.332 421.831,358.471 461.354,338.324 471.614 C 306.817 487.660,262.114 501.756,221.243 508.532 C 215.884 509.421,200.700 512.097,187.500 514.480 C 174.300 516.863,156.750 519.867,148.500 521.156 C 140.152 522.461,134.165 524.830,135.000 526.500 C 135.825 528.150,138.525 529.228,141.000 528.895 C 209.379 519.700,278.579 504.708,311.836 491.882 C 324.872 486.855,347.105 475.713,361.243 467.121 C 406.628 439.542,514.114 362.465,562.500 322.803 C 655.908 246.237,698.012 216.792,751.500 190.632 C 792.815 170.425,828.742 157.842,873.000 148.076 C 904.592 141.105,911.799 140.587,958.500 141.931 C 1017.144 143.619,1038.754 148.497,1078.415 168.998 C 1106.545 183.539,1138.787 212.493,1155.494 238.215 C 1169.131 259.210,1169.927 263.464,1158.750 255.613 C 1143.088 244.612,1120.415 236.366,1095.000 232.427 C 1046.363 224.889,1000.181 236.707,972.495 263.774 C 956.505 279.407,957.627 283.272,973.809 268.302 C 1014.687 230.487,1086.779 223.620,1143.310 252.157 C 1153.373 257.237,1160.905 262.095,1160.046 262.954 C 1159.188 263.812,1148.229 262.860,1135.692 260.837 C 1108.491 256.450,1069.086 258.564,1049.499 265.463 C 1040.240 268.724,1030.409 275.775,1020.477 286.277 C 1007.872 299.604,1004.139 306.385,997.264 328.433 C 989.769 352.472,989.356 356.232,992.407 372.640 C 998.988 408.025,1033.235 445.332,1081.483 469.675 C 1110.430 484.280,1151.338 493.926,1168.441 490.179 C 1176.680 488.373,1177.042 488.630,1173.046 493.444 C 1167.690 499.898,1075.456 561.070,1041.740 580.531 C 1017.139 594.729,1016.809 594.820,990.740 594.519 C 928.498 593.800,857.027 559.912,845.762 525.778 C 837.040 499.350,844.634 483.132,871.651 470.489 C 888.890 462.422,892.293 461.790,904.484 464.390 C 911.964 465.985,918.727 466.251,919.512 464.980 C 921.902 461.114,896.490 440.597,879.669 432.813 C 846.722 417.564,794.072 416.638,740.171 430.358 C 708.261 438.480,661.336 456.460,635.696 470.389 C 601.626 488.897,593.456 494.049,521.202 542.588 C 480.338 570.040,438.511 597.488,428.253 603.584 C 377.911 633.499,310.434 640.757,256.782 622.027 C 250.337 619.777,244.264 618.736,243.287 619.713 C 236.315 626.685,287.091 640.135,319.500 639.903 C 364.507 639.580,412.828 624.564,449.573 599.483 C 604.310 493.862,651.784 466.148,711.000 446.867 C 748.501 434.658,789.394 426.105,810.554 426.047 C 842.325 425.959,886.238 438.515,896.188 450.531 C 898.874 453.774,894.174 454.534,870.488 454.684 C 840.132 454.877,824.415 459.463,803.800 474.142 C 772.105 496.711,776.921 548.096,813.752 580.314 C 842.565 605.519,875.734 619.561,914.546 622.985 C 926.671 624.055,934.771 625.915,932.546 627.119 C 930.321 628.322,913.650 633.081,895.500 637.694 C 866.877 644.968,855.338 646.235,808.500 647.245 L 754.500 648.411 723.000 636.499 C 694.928 625.883,681.718 623.345,688.989 629.963 C 694.067 634.586,733.223 648.571,752.571 652.672 C 822.313 667.454,932.489 644.233,1032.751 593.621 C 1076.977 571.296,1163.212 511.846,1219.900 464.602 C 1291.342 405.061,1348.544 366.562,1384.529 353.799 C 1409.391 344.981,1452.293 344.966,1477.260 353.767 C 1502.631 362.711,1519.101 373.147,1530.916 387.767 C 1549.738 411.056,1553.033 421.821,1539.750 416.623 C 1525.138 410.904,1496.546 412.316,1476.706 419.736 C 1443.455 432.171,1419.673 459.746,1412.687 493.965 C 1407.828 517.767,1412.434 540.098,1426.520 561.029 C 1432.062 569.265,1437.537 579.041,1438.687 582.752 C 1442.201 594.098,1454.447 616.071,1461.761 624.154 C 1472.419 635.933,1494.508 650.125,1513.925 657.670 C 1529.491 663.719,1536.473 664.467,1575.000 664.214 C 1613.790 663.960,1621.261 663.037,1644.000 655.690 C 1673.081 646.295,1719.000 624.674,1719.000 620.377 C 1719.000 618.794,1717.988 618.020,1716.750 618.655 C 1667.977 643.692,1635.278 655.007,1597.378 659.961 C 1555.691 665.410,1509.818 655.764,1482.748 635.856 C 1469.957 626.450,1452.930 604.927,1446.639 590.213 L 1443.095 581.927 1455.798 588.573 C 1490.680 606.826,1522.954 616.167,1563.000 619.600 C 1608.194 623.475,1693.665 607.503,1753.515 584.000 C 1768.357 578.172,1794.800 567.998,1812.279 561.391 C 1829.757 554.785,1850.007 546.697,1857.279 543.417 C 1893.141 527.245,1903.242 523.243,1938.131 511.385 C 2023.315 482.433,2099.789 479.463,2150.172 503.150 C 2170.902 512.897,2196.618 537.487,2202.188 552.889 C 2206.578 565.029,2215.900 569.014,2212.391 557.250 C 2198.242 509.823,2141.817 480.000,2066.236 480.000 C 2024.543 480.000,1955.566 493.406,1927.500 506.963 C 1924.200 508.558,1912.725 513.118,1902.000 517.097 C 1891.275 521.076,1860.900 533.087,1834.500 543.787 C 1745.801 579.739,1720.835 588.756,1686.084 597.390 C 1612.677 615.629,1553.269 616.567,1503.000 600.282 C 1462.865 587.280,1445.326 576.411,1431.937 556.246 C 1421.941 541.190,1420.783 537.308,1419.607 514.897 C 1418.443 492.723,1419.120 488.564,1426.154 474.683 C 1443.514 440.425,1473.994 421.550,1512.000 421.523 C 1527.630 421.512,1537.646 423.123,1544.804 426.800 C 1550.471 429.711,1556.216 430.984,1557.570 429.630 C 1562.704 424.496,1550.123 398.395,1534.253 381.253 C 1494.348 338.151,1421.409 327.182,1362.602 355.439 C 1324.328 373.829,1276.131 407.291,1221.705 453.259 C 1190.324 479.763,1183.556 483.000,1159.534 483.000 C 1102.367 483.000,1030.841 440.719,1006.970 392.816 C 993.862 366.512,998.333 326.800,1017.481 299.457 C 1036.792 271.882,1072.218 260.843,1123.437 266.442 C 1139.972 268.250,1159.381 271.805,1166.569 274.344 C 1173.758 276.882,1180.832 278.222,1182.290 277.321 C 1185.789 275.158,1172.535 249.087,1156.272 226.145 C 1104.748 153.461,1004.464 119.517,892.500 136.865 M860.253 470.829 C 816.934 498.301,835.836 548.694,900.802 578.934 C 924.934 590.168,959.937 598.992,987.000 600.665 L 1000.500 601.500 979.500 608.793 C 955.455 617.143,911.723 618.754,888.000 612.163 C 822.364 593.928,777.086 541.836,792.200 501.945 C 800.550 479.906,830.216 463.140,862.337 462.307 L 874.175 462.000 860.253 470.829 " stroke="none" fill="black" fill-rule="evenodd"/></svg>